PathFileType	4	(X/Y/Z)	E:\3-PhD\Data\MocapData\ElaboratedData\012\pre\dynamicElaborations\RunL1\RunL1.trc
DataRate	CameraRate	NumFrames	NumMarkers	Units	OrigDataRate	OrigDataStartFrame	OrigNumFrames
200	200	4	56	mm	200	669	123
Frame#	Time	FHD			LBHD			RBHD			C7			T10			CLAV			LSHO			LUUPA			LMUPA			LDUPA			LLEP			LMEP			LRAD			LUL			LRFIN			RSHO			RUPA1			RMUPA			RDUPA			RLEP			RMEP			RRAD			RUL			RUFIN			LASI			RASI			USACR			LSACR			RSACR			LTHI1			LTHI2			LTHI3			LTHI4			LLFC			LTIB1			LTIB2			LTIB3			LTIB4			LHEE			LMT1			LMT5			LMT2			RTHI			RTHI2			RTHI3			RTHI4			RLFC			RTIB1			RTIB2			RTIB3			RTIB4			RLMAL			RHEE			RMT1			RMT2			RMT5		
		X1	Y1	Z1	X2	Y2	Z2	X3	Y3	Z3	X4	Y4	Z4	X5	Y5	Z5	X6	Y6	Z6	X7	Y7	Z7	X8	Y8	Z8	X9	Y9	Z9	X10	Y10	Z10	X11	Y11	Z11	X12	Y12	Z12	X13	Y13	Z13	X14	Y14	Z14	X15	Y15	Z15	X16	Y16	Z16	X17	Y17	Z17	X18	Y18	Z18	X19	Y19	Z19	X20	Y20	Z20	X21	Y21	Z21	X22	Y22	Z22	X23	Y23	Z23	X24	Y24	Z24	X25	Y25	Z25	X26	Y26	Z26	X27	Y27	Z27	X28	Y28	Z28	X29	Y29	Z29	X30	Y30	Z30	X31	Y31	Z31	X32	Y32	Z32	X33	Y33	Z33	X34	Y34	Z34	X35	Y35	Z35	X36	Y36	Z36	X37	Y37	Z37	X38	Y38	Z38	X39	Y39	Z39	X40	Y40	Z40	X41	Y41	Z41	X42	Y42	Z42	X43	Y43	Z43	X44	Y44	Z44	X45	Y45	Z45	X46	Y46	Z46	X47	Y47	Z47	X48	Y48	Z48	X49	Y49	Z49	X50	Y50	Z50	X51	Y51	Z51	X52	Y52	Z52	X53	Y53	Z53	X54	Y54	Z54	X55	Y55	Z55	X56	Y56	Z56	
669	3.340000	-1774.388059	1708.934544	438.896539	-1939.905595	1743.259007	358.540351	-1909.886654	1717.823427	507.076951	-2024.678871	1564.032627	422.571962	-2187.978823	1252.345608	371.788636	-1926.478540	1433.826713	385.198583	-1962.475026	1573.732126	246.406250	-2153.728759	1484.400957	141.214782	-2144.715166	1442.394146	114.655339	-2205.857299	1443.808574	118.129936	-2251.324981	1371.637399	83.074081	-2270.585805	1348.464202	168.748504	-2114.063969	1129.415481	101.183635	-2165.797767	1115.089972	43.083203	-2074.909178	1055.307321	80.487745	-1933.260100	1474.008284	571.108563	-2106.496085	1316.905154	648.510329	-2081.015234	1273.684778	646.422766	-2135.836390	1253.473342	652.305111	-2159.960594	1185.453242	654.501878	-2186.646369	1180.564971	572.813379	-1921.746861	1088.093974	544.576052	-1938.382848	1017.983428	575.983070	-1843.996603	1043.954713	532.707769	-2098.912804	997.070980	236.419875	-2117.049786	988.744266	467.491857	-2249.322027	1131.211542	350.493779	-2268.411102	1104.271063	320.618624	-2269.495291	1105.075444	378.816758	-2104.868807	786.396035	150.782186	-2028.000441	745.635130	158.019143	-1994.459363	769.299710	184.419013	-2019.795507	687.668454	156.492788	-1964.018340	547.951809	176.335184	-2092.415136	423.663215	251.130933	-2147.053532	432.347513	184.296883	-2136.547542	401.914316	217.352309	-2207.424438	373.484761	249.934991	-2419.892520	383.779698	277.911777	-2323.597767	195.805673	278.038064	-2344.686809	221.688384	178.845821	-2311.049138	194.883430	222.788681	-2249.738298	696.373351	488.925439	-2218.817903	636.450160	482.137092	-2187.155650	631.160790	475.204207	-2255.448365	566.193350	458.806578	-2278.094210	445.998811	434.614771	-2311.347028	321.988288	379.124230	-2408.881681	295.957127	420.946501	-2379.197800	268.432579	399.046134	-2401.837485	229.686521	362.678216	-2552.238344	128.260700	365.158040	-2621.527092	100.579458	317.857158	-2400.980443	61.833427	296.553462	-2402.231974	60.288816	339.865594	-2444.857141	46.977003	393.779526	
670	3.345000	-1750.205741	1712.394853	436.697512	-1915.635491	1746.691141	356.199776	-1885.756674	1721.230355	504.761750	-1999.969851	1566.999821	421.739350	-2162.688285	1254.214012	373.430459	-1902.069379	1437.498269	382.830041	-1939.962172	1577.946679	245.376337	-2132.690100	1491.438384	142.021967	-2124.302974	1450.010177	114.345885	-2185.379026	1451.618056	118.734173	-2231.556006	1380.281705	82.976975	-2250.159024	1356.177331	168.697280	-2093.750861	1138.467954	96.904565	-2147.005166	1124.173825	40.099043	-2055.177807	1064.138959	75.132357	-1906.331149	1477.833386	568.762510	-2077.334778	1320.050958	649.864526	-2051.854517	1276.946336	646.605816	-2106.560155	1256.654996	653.726208	-2130.699757	1188.824658	655.971854	-2158.998845	1184.093605	574.607229	-1891.774943	1099.254330	542.401289	-1906.139549	1028.259183	572.917367	-1812.819570	1057.781532	529.212126	-2073.269203	1000.990668	235.967608	-2090.630782	989.447086	466.521189	-2223.578525	1133.032097	351.663230	-2242.816167	1106.438076	321.685602	-2243.489141	1106.600752	379.930530	-2075.395440	792.150191	150.775855	-1997.787679	753.003617	158.747149	-1964.920316	777.647487	185.028255	-1988.342458	695.254581	157.653530	-1929.441502	556.929542	177.939680	-2051.729532	424.847886	251.384764	-2106.391800	431.010581	184.530866	-2094.254304	400.793371	217.257881	-2163.696527	368.021099	249.502943	-2376.611337	365.108203	276.762861	-2267.895069	183.757374	275.258176	-2290.782049	209.222703	176.210995	-2255.579475	184.110431	220.125166	-2231.125610	698.334171	488.521021	-2202.293020	637.451311	481.566054	-2170.696209	631.330573	474.366152	-2241.650873	568.330232	458.953447	-2269.011419	448.905319	435.196878	-2304.278629	325.211030	380.388494	-2402.246108	300.839353	422.121661	-2372.876451	272.700845	400.490331	-2395.942616	233.949686	364.329125	-2548.192629	134.662912	366.950808	-2617.645191	109.555556	319.239599	-2400.061520	61.208711	296.787571	-2401.181404	59.407457	339.877975	-2444.156976	47.353924	393.848943	
671	3.350000	-1725.960814	1715.868927	434.423173	-1891.281695	1750.176494	353.782751	-1861.551501	1724.705188	502.383344	-1975.236221	1570.061552	420.887938	-2137.330868	1256.124829	375.244859	-1877.642694	1441.283942	380.490308	-1917.328356	1582.170133	244.365793	-2111.213353	1498.275410	142.624152	-2103.418132	1457.315142	114.078803	-2164.419224	1459.154021	119.208811	-2211.357538	1388.726656	82.934504	-2229.441064	1363.788341	168.748767	-2073.051970	1147.451386	92.908188	-2127.682206	1133.106594	37.340380	-2034.995786	1072.847589	70.161964	-1879.358972	1481.680104	566.368229	-2048.246805	1323.434079	651.061864	-2022.827194	1280.406198	646.776555	-2077.435653	1260.104985	655.086574	-2101.607499	1192.484600	657.470433	-2131.473881	1187.876964	576.507426	-1862.326692	1110.388820	540.385920	-1874.496579	1038.640702	570.053448	-1782.320365	1071.553774	525.931818	-2047.488551	1005.112371	235.565347	-2064.006425	990.273970	465.468896	-2197.760241	1134.879321	352.887237	-2217.163547	1108.630940	322.774352	-2217.402275	1108.097019	381.045269	-2046.006829	797.867964	150.682707	-1967.809302	760.121547	159.413260	-1935.567875	785.622130	185.584592	-1957.331550	702.562312	158.777030	-1895.892269	565.495820	179.514971	-2011.481901	425.918882	251.709039	-2066.025340	429.415005	184.802412	-2052.217419	399.598591	217.226750	-2119.937440	362.495240	249.156102	-2332.349396	346.116891	275.711476	-2211.616142	172.308234	272.725227	-2236.292411	197.217520	173.804235	-2199.614035	173.917269	217.696530	-2212.112028	700.551769	488.216158	-2185.327097	638.837160	481.048634	-2153.846163	631.968350	473.483390	-2227.327085	570.871274	459.241369	-2259.352295	452.439611	435.933040	-2296.653426	329.067272	381.923275	-2395.011356	306.273210	423.529496	-2365.927625	277.542823	402.207890	-2389.365252	238.721720	366.287188	-2543.360999	141.498629	368.976180	-2612.785776	119.266781	320.821660	-2398.981198	60.551392	297.067429	-2399.971463	58.483780	339.951572	-2443.276068	47.802155	394.001821	
672	3.355000	-1701.661416	1719.313219	432.083688	-1866.850299	1753.674424	351.300588	-1837.279486	1728.204527	499.952740	-1950.501573	1573.180895	420.005180	-2111.912383	1258.071914	377.198957	-1853.206140	1445.148841	378.190010	-1894.564158	1586.349217	243.366389	-2089.337292	1504.881590	143.002570	-2082.097856	1464.265492	113.820192	-2143.022672	1466.385804	119.534213	-2190.765376	1396.922476	82.953142	-2208.423038	1371.225081	168.913787	-2051.959095	1156.304459	89.158561	-2107.825600	1141.839317	34.765101	-2014.374884	1081.363779	65.557700	-1852.354615	1485.525762	563.927471	-2019.265257	1327.035661	652.071123	-1993.954098	1284.044715	646.942330	-2048.476624	1263.801281	656.380986	-2072.685029	1196.400300	659.002763	-2104.041375	1191.865121	578.529930	-1833.367671	1121.432943	538.515940	-1843.417693	1049.068185	567.397275	-1752.460931	1085.189712	522.837532	-2021.567929	1009.422710	235.212066	-2037.216886	991.196632	464.353155	-2171.867890	1136.736074	354.155059	-2191.460829	1110.833186	323.862449	-2191.243981	1109.554213	382.142414	-2016.718317	803.502668	150.535999	-1938.056802	766.939302	160.028730	-1906.382868	793.183875	186.085379	-1926.756247	709.535903	159.867953	-1863.344887	573.547624	181.026927	-1971.663038	426.830202	252.073869	-2025.929840	427.528017	185.075163	-2010.431105	398.298866	217.236848	-2076.123947	356.921874	248.873950	-2287.079118	326.910878	274.749840	-2154.851126	161.553691	270.477777	-2181.244473	185.737088	171.653091	-2143.206024	164.382581	215.530454	-2192.717774	703.016051	488.016501	-2167.944415	640.575717	480.567869	-2136.616368	633.057386	472.562732	-2212.482157	573.800801	459.647378	-2249.077231	456.564990	436.793031	-2288.437580	333.518924	383.704985	-2387.140085	312.217277	425.145054	-2358.312038	282.918063	404.174904	-2382.067021	243.957136	368.532776	-2537.660186	148.709991	371.213157	-2606.850994	129.640893	322.587075	-2397.721253	59.919254	297.390088	-2398.591784	57.565107	340.093919	-2442.187786	48.363516	394.244747	
